PathFileType	4	(X/Y/Z)
DataRate	CameraRate	NumFrames	NumMarkers	Units	OrigDataRate	OrigDataStartFrame	OrigNumFrames	
  100.0	  100.0	    4	     56	     mm	  100.0	      119	    317
Frame#	Time	LASI			RASI			LPSI			RPSI			RTH1			RTH2			RTH3			RLFC			RMFC			LTH1			LTH2			LTH3			LLFC			LMFC			RTB1			RTB2			RTB3			RLMAL			RMMAL			LTB1			LTB2			LTB3			LMMAL			LLMAL			RCAL			RTOE			RMT5			LCAL			LTOE			LMT5			LACR			RACR			CLAV			C7			LASH			LPSH			RASH			RPSH			RUA1			RUA2			RUA3			RLEL			RMEL			LUA1			LUA2			LUA3			LLEL			LMEL			RFAsuperior			RFAradius			RFAulna			LFAsuperior			LFAradius			LFAulna			RHJC			LHJC			
		X1	Y1	Z1	X2	Y2	Z2	X3	Y3	Z3	X4	Y4	Z4	X5	Y5	Z5	X6	Y6	Z6	X7	Y7	Z7	X8	Y8	Z8	X9	Y9	Z9	X10	Y10	Z10	X11	Y11	Z11	X12	Y12	Z12	X13	Y13	Z13	X14	Y14	Z14	X15	Y15	Z15	X16	Y16	Z16	X17	Y17	Z17	X18	Y18	Z18	X19	Y19	Z19	X20	Y20	Z20	X21	Y21	Z21	X22	Y22	Z22	X23	Y23	Z23	X24	Y24	Z24	X25	Y25	Z25	X26	Y26	Z26	X27	Y27	Z27	X28	Y28	Z28	X29	Y29	Z29	X30	Y30	Z30	X31	Y31	Z31	X32	Y32	Z32	X33	Y33	Z33	X34	Y34	Z34	X35	Y35	Z35	X36	Y36	Z36	X37	Y37	Z37	X38	Y38	Z38	X39	Y39	Z39	X40	Y40	Z40	X41	Y41	Z41	X42	Y42	Z42	X43	Y43	Z43	X44	Y44	Z44	X45	Y45	Z45	X46	Y46	Z46	X47	Y47	Z47	X48	Y48	Z48	X49	Y49	Z49	X50	Y50	Z50	X51	Y51	Z51	X52	Y52	Z52	X53	Y53	Z53	X54	Y54	Z54	X55	Y55	Z55	X56	Y56	Z56	

191	1.91000	770.57527	1033.53593	-421.50904	511.77139	1034.98639	-438.11574	700.90324	1085.45368	-596.89587	606.81677	1083.39803	-607.03553	442.21435	871.82629	-503.88721	433.12083	771.93155	-473.62556	436.50506	637.63627	-546.26838	431.19435	520.23271	-525.94715	547.45008	512.50431	-497.97485	841.35300	896.97326	-517.59020	850.46690	767.60051	-465.55319	845.93089	652.54162	-550.75182	850.51319	492.11484	-552.93407	735.72348	474.55636	-530.36393	452.03335	369.12950	-494.12001	402.65754	276.71906	-554.06502	448.43330	193.93898	-521.07191	399.56996	122.02858	-578.94246	486.54828	128.31268	-541.77190	829.78786	364.81786	-512.69986	871.13705	312.73976	-560.97540	835.69045	226.51936	-529.61136	789.30501	133.70225	-543.06217	874.50901	126.93811	-579.75802	454.68912	103.32239	-642.61667	422.90927	78.97765	-408.38380	352.00927	59.13332	-437.57126	803.16121	103.05103	-640.44129	860.93594	77.65927	-403.29941	934.50600	58.76608	-454.90980	786.01714	1574.17850	-540.86259	476.90580	1555.37462	-566.53660	594.03110	1510.70862	-480.66150	633.86312	1576.42550	-598.31418	759.00656	1527.24151	-463.05299	819.55839	1504.19377	-599.47446	506.08253	1511.96724	-494.71420	453.28635	1501.36512	-621.77480	344.57187	1519.80293	-549.82488	320.56426	1468.07915	-576.15413	264.48593	1493.61750	-525.66757	184.49127	1484.79149	-496.45566	206.44271	1396.54981	-492.13119	908.52321	1523.84386	-531.29648	942.56210	1442.94765	-540.32699	1007.37240	1478.01507	-481.69769	1072.95559	1459.51861	-453.31710	1041.53432	1374.15217	-441.20882	195.07710	1504.01094	-406.48013	199.02399	1486.99023	-223.03459	131.30488	1503.00680	-242.45710	1078.51249	1481.19655	-364.84352	1044.24853	1469.56772	-181.83273	1115.77192	1474.66710	-186.49837	550.83433	946.19252	-516.99698	752.68705	934.59322	-502.61382	
192	1.92000	770.60952	1033.53574	-421.48949	511.80149	1034.98319	-438.05605	700.94346	1085.43587	-596.91974	606.84915	1083.38208	-607.04080	442.22352	871.82144	-503.85293	433.13888	771.91909	-473.60874	436.60836	637.65275	-546.32517	431.19531	520.22415	-525.93191	547.45252	512.49593	-497.95795	841.37601	896.96766	-517.60468	850.49729	767.60993	-465.54749	845.97441	652.54812	-550.77011	850.55064	492.10625	-552.91625	735.72972	474.57679	-530.24668	452.03482	369.12521	-494.10796	402.65705	276.70223	-554.09414	448.43345	193.94696	-521.06372	399.57814	122.05531	-578.92505	486.56665	128.31883	-541.79041	829.79880	364.81516	-512.67706	871.15202	312.73840	-560.96591	835.69304	226.51493	-529.59960	789.30334	133.70220	-543.07508	874.51456	126.93372	-579.77355	454.70838	103.33126	-642.63266	422.90477	78.97665	-408.37640	352.02162	59.12934	-437.57687	803.19284	103.06499	-640.48473	860.95482	77.67392	-403.32615	934.51398	58.76577	-454.89996	786.02276	1574.16720	-540.91644	476.85848	1555.41638	-566.75032	594.03367	1510.69341	-480.68383	633.86633	1576.39557	-598.36570	759.00957	1527.23143	-463.10184	819.54968	1504.17047	-599.53883	506.08069	1511.96352	-494.71187	453.33109	1501.29186	-621.88982	344.57568	1519.74840	-549.82252	320.59077	1468.01290	-576.15493	264.50027	1493.58428	-525.65887	184.48227	1484.74055	-496.43121	206.48471	1396.50022	-492.08863	908.54609	1523.78535	-531.45977	942.57957	1442.93024	-540.43950	1007.38794	1478.00809	-481.80038	1072.97260	1459.51577	-453.44072	1041.55044	1374.15002	-441.32040	195.12560	1503.96828	-406.45279	199.06383	1486.96565	-222.99431	131.36597	1502.95031	-242.45098	1078.53493	1481.19495	-364.97940	1044.29888	1469.59213	-181.98003	1115.81427	1474.67572	-186.64117	550.86336	946.18500	-516.95757	752.71547	934.57958	-502.57413	
193	1.93000	770.63246	1033.53540	-421.47187	511.82460	1034.97800	-438.00439	700.98346	1085.41870	-596.93347	606.87629	1083.36625	-607.04121	442.23826	871.80376	-503.81571	433.16250	771.91566	-473.60120	436.65329	637.64641	-546.34197	431.19609	520.21203	-525.91759	547.45477	512.48398	-497.94196	841.39372	896.96801	-517.60322	850.52157	767.62247	-465.53050	846.01488	652.55643	-550.78287	850.58062	492.09362	-552.89340	735.75250	474.58379	-530.16457	452.04237	369.11115	-494.09469	402.65530	276.69472	-554.08369	448.43763	193.95585	-521.04491	399.57305	122.04825	-578.92102	486.57792	128.31572	-541.79440	829.80834	364.80827	-512.64467	871.16633	312.73482	-560.95090	835.69774	226.51216	-529.58509	789.30540	133.70277	-543.06671	874.52812	126.91033	-579.78150	454.72455	103.33743	-642.64748	422.90475	78.97786	-408.36797	352.03105	59.12435	-437.57898	803.22376	103.07211	-640.52184	860.96869	77.68373	-403.35014	934.51658	58.76072	-454.87605	786.02525	1574.15723	-540.95933	476.84315	1555.41893	-566.78308	594.03898	1510.67724	-480.68504	633.86879	1576.36300	-598.41160	759.01799	1527.21229	-463.14190	819.54349	1504.14613	-599.60561	506.08261	1511.95174	-494.71008	453.36692	1501.26739	-621.92781	344.58611	1519.70598	-549.82029	320.60919	1467.94323	-576.13284	264.50796	1493.54620	-525.63670	184.48688	1484.69945	-496.41153	206.52848	1396.46109	-492.06868	908.55130	1523.75389	-531.56349	942.59089	1442.83617	-540.69657	1007.40143	1477.99666	-481.88819	1072.99171	1459.50362	-453.57328	1041.56811	1374.14285	-441.41854	195.17091	1503.90966	-406.44253	199.09308	1486.94211	-222.94401	131.39917	1502.89934	-242.41752	1078.55837	1481.19137	-365.08907	1044.36198	1469.60399	-182.10995	1115.85266	1474.71216	-186.73216	550.88702	946.17738	-516.92577	752.73791	934.56616	-502.53371	
194	1.94000	770.64492	1033.53535	-421.45427	511.83860	1034.96669	-437.96044	701.00973	1085.40412	-596.92927	606.89626	1083.35243	-607.03246	442.25531	871.78240	-503.78267	433.18789	771.91698	-473.58326	436.64648	637.62894	-546.32072	431.19579	520.19763	-525.89787	547.45593	512.46973	-497.92056	841.40727	896.97342	-517.58339	850.54479	767.63578	-465.50993	846.03933	652.56322	-550.77308	850.59860	492.08074	-552.86402	735.79917	474.56658	-530.15419	452.05446	369.09184	-494.08827	402.65552	276.69229	-554.05775	448.44272	193.95691	-521.03120	399.56096	122.01740	-578.93549	486.57631	128.30225	-541.77979	829.81746	364.79738	-512.60905	871.17626	312.73015	-560.93512	835.70285	226.51068	-529.57304	789.30877	133.70598	-543.04500	874.52657	126.87591	-579.74654	454.73372	103.33968	-642.65675	422.90794	78.98098	-408.36285	352.03430	59.12209	-437.57700	803.23846	103.06557	-640.53206	860.97153	77.68483	-403.34667	934.51468	58.75680	-454.85402	786.01854	1574.14814	-540.98842	476.85670	1555.37761	-566.64874	594.04612	1510.66344	-480.67561	633.86024	1576.33601	-598.44030	759.02697	1527.19361	-463.17190	819.53378	1504.12679	-599.65461	506.09017	1511.93789	-494.71170	453.36730	1501.27489	-621.87662	344.59045	1519.68181	-549.81100	320.60926	1467.88150	-576.08265	264.50058	1493.50480	-525.59788	184.48915	1484.67883	-496.39102	206.55391	1396.42619	-492.05682	908.53728	1523.75538	-531.59224	942.58506	1442.70366	-541.02140	1007.41047	1477.98602	-481.96430	1073.01050	1459.48327	-453.69712	1041.58454	1374.13402	-441.49417	195.19487	1503.85348	-406.43506	199.10884	1486.91961	-222.89145	131.41191	1502.86417	-242.36386	1078.58297	1481.18978	-365.16731	1044.42983	1469.61039	-182.21307	1115.89392	1474.74742	-186.80969	550.90453	946.16697	-516.89870	752.75443	934.55593	-502.49618	
